# xmcd
#
# Track frame offsets:
#	150
#	15281
#	31481
#	44279
#	61417
#	76830
#	92318
#	108856
#	121906
#	141106
#
# Disc length: 2125 seconds
#
# Revision: 2
# Processed by: cddbd v1.4PL0 Copyright (c) Steve Scherf et al.
# Submitted via: audiograbber 1.80.04
#
DISCID=6c084b0a
DTITLE=Harry Belafonte - Ballads Blues and Boasters
DYEAR=1900
DGENRE=Blues
TTITLE0=Tone the Bell Easy
TTITLE1=Blue Willow Moan
TTITLE2=Ananias
TTITLE3=Boy
TTITLE4=My Love is a Dewdrop
TTITLE5=Back of the Bus
TTITLE6=John the Revelator
TTITLE7=Four Strong Winds
TTITLE8=Black Betty
TTITLE9=Big Boat up the River
EXTD=
EXTT0=
EXTT1=
EXTT2=
EXTT3=
EXTT4=
EXTT5=
EXTT6=
EXTT7=
EXTT8=
EXTT9=
PLAYORDER=
